<?xml version="1.0" standalone="no"?>
<!DOCTYPE svg PUBLIC "-//W3C//DTD SVG 20010904//EN"
 "http://www.w3.org/TR/2001/REC-SVG-20010904/DTD/svg10.dtd">
<svg version="1.0" xmlns="http://www.w3.org/2000/svg"
 width="1192.000000pt" height="948.000000pt" viewBox="0 0 1192.000000 948.000000"
 preserveAspectRatio="xMidYMid meet">

<g transform="translate(0.000000,948.000000) scale(0.100000,-0.100000)"
fill="#000000" stroke="none">
<path d="M6115 7503 c-94 -12 -232 -67 -319 -126 -172 -116 -283 -273 -338
-476 -17 -60 -22 -119 -27 -286 l-6 -210 -181 -3 -180 -2 -172 -180 -172 -180
0 -360 c0 -198 3 -360 8 -360 4 0 78 79 166 175 87 96 162 175 167 175 5 0 9
-281 9 -653 0 -701 0 -708 52 -817 30 -63 141 -171 208 -202 64 -30 150 -48
232 -48 32 0 58 1 58 3 0 1 3 639 6 1417 7 1557 3 1484 69 1609 66 125 158
216 280 277 171 84 355 83 535 -4 94 -46 211 -158 263 -252 70 -128 70 -131
76 -582 l6 -406 48 -89 c89 -164 137 -271 159 -349 21 -76 22 -99 26 -636 l3
-558 -335 0 -336 0 0 533 c0 673 1 679 152 944 86 150 88 158 88 364 0 136 -3
179 -12 180 -7 0 -76 0 -153 -1 -110 -1 -152 -6 -200 -21 -171 -58 -307 -199
-349 -365 -23 -91 -24 -1565 -1 -1663 46 -192 202 -346 392 -386 80 -17 717
-21 799 -6 189 36 339 166 406 352 l23 64 3 770 c3 834 3 844 -52 960 -72 154
-237 275 -399 292 -34 3 -65 11 -69 16 -3 6 -7 93 -7 195 -1 206 -15 293 -63
409 -124 301 -422 497 -745 492 -48 -1 -101 -4 -118 -6z"/>
<path d="M6855 4936 c-22 -7 -63 -27 -91 -44 -41 -26 -62 -32 -107 -32 -48 0
-62 5 -101 35 l-46 35 0 -235 0 -235 245 0 245 0 0 245 0 245 -52 -1 c-29 0
-71 -6 -93 -13z"/>
<path d="M7154 3430 c-133 -9 -154 -43 -154 -250 0 -120 3 -146 20 -179 27
-54 68 -71 174 -71 102 0 106 -4 106 -105 0 -91 -9 -105 -69 -105 -55 0 -61 7
-61 76 l0 44 -85 0 -85 0 0 -70 c0 -155 44 -190 236 -190 137 0 175 13 209 70
18 31 20 52 20 190 0 224 -18 249 -195 259 l-95 6 0 90 0 90 45 3 c51 4 70
-13 70 -60 l0 -29 83 3 82 3 -1 65 c0 71 -19 116 -58 140 -26 17 -147 27 -242
20z"/>
<path d="M6244 3414 c-16 -8 -39 -29 -50 -47 -18 -30 -19 -53 -19 -357 0 -354
1 -362 58 -404 25 -19 45 -21 168 -24 125 -3 144 -1 182 17 75 37 77 45 77
407 0 349 -3 368 -62 404 -29 18 -50 20 -178 20 -109 0 -153 -4 -176 -16z
m231 -404 l0 -295 -56 -3 c-52 -3 -57 -1 -62 20 -11 43 -7 539 4 559 8 17 19
20 62 17 l52 -3 0 -295z"/>
<path d="M4850 3222 c0 -172 2 -202 18 -232 29 -54 70 -70 184 -70 l98 0 2
-162 3 -163 80 0 80 0 3 413 2 413 -82 -3 -83 -3 -5 -170 -5 -170 -44 -3 c-25
-2 -55 -1 -68 3 -23 5 -23 6 -23 175 l0 170 -80 0 -80 0 0 -198z"/>
<path d="M5650 3005 l0 -415 90 0 90 0 0 415 0 415 -90 0 -90 0 0 -415z"/>
</g>
</svg>
