<?xml version="1.0" standalone="no"?>
<!DOCTYPE svg PUBLIC "-//W3C//DTD SVG 20010904//EN"
 "http://www.w3.org/TR/2001/REC-SVG-20010904/DTD/svg10.dtd">
<svg version="1.0" xmlns="http://www.w3.org/2000/svg"
 width="640.000000pt" height="714.000000pt" viewBox="0 0 640.000000 714.000000"
 preserveAspectRatio="xMidYMid meet">

<g transform="translate(0.000000,714.000000) scale(0.100000,-0.100000)"
fill="#000000" stroke="none">
<path d="M3080 6590 c-76 -14 -238 -77 -311 -120 -163 -97 -291 -235 -375
-405 -87 -178 -96 -226 -102 -527 l-4 -258 -215 0 -216 0 -146 -152 c-81 -84
-175 -183 -209 -220 l-62 -67 0 -426 c0 -255 4 -425 9 -425 5 0 96 95 201 210
106 116 196 210 201 210 5 0 9 -340 9 -788 0 -873 -2 -843 66 -973 69 -131
209 -239 355 -274 35 -8 103 -15 151 -15 l88 0 2 1698 c3 1914 -5 1730 84
1911 86 175 259 319 444 370 255 71 509 8 698 -173 68 -65 139 -164 171 -240
53 -122 54 -130 60 -641 l6 -480 41 -75 c23 -41 60 -109 84 -150 57 -102 97
-200 123 -295 20 -77 21 -105 24 -747 l4 -668 -396 0 -396 0 3 673 c4 664 4
673 26 751 33 115 64 184 149 334 42 74 82 150 88 170 8 23 14 119 16 257 l4
220 -150 3 c-165 3 -236 -6 -335 -45 -167 -66 -289 -197 -363 -390 -22 -58
-22 -58 -25 -984 -3 -1042 -5 -1008 70 -1159 54 -111 160 -218 269 -272 126
-63 174 -68 641 -68 380 0 420 2 498 20 218 53 398 232 455 455 13 52 15 183
15 976 0 529 -4 936 -9 965 -45 237 -242 439 -478 489 -37 8 -83 15 -100 15
l-33 0 0 204 c0 113 -5 239 -11 280 -51 371 -301 670 -661 791 -108 37 -119
38 -263 41 -82 2 -170 -1 -195 -6z"/>
<path d="M4000 3536 c-25 -6 -68 -25 -95 -40 -93 -53 -110 -60 -155 -60 -50 0
-96 22 -147 68 l-33 30 0 -282 0 -282 295 0 295 0 0 284 c0 250 -2 285 -16
290 -25 9 -95 6 -144 -8z"/>
<path d="M3310 1729 c-54 -11 -88 -34 -115 -80 -19 -32 -20 -52 -20 -424 0
-389 0 -390 23 -427 14 -22 41 -45 67 -58 41 -20 57 -21 212 -18 159 3 170 4
202 27 69 49 71 62 71 480 0 356 -1 377 -20 415 -27 54 -58 75 -128 86 -69 12
-230 11 -292 -1z m220 -158 c16 -31 14 -662 -3 -685 -10 -14 -25 -17 -72 -14
l-60 3 -3 349 c-2 273 1 351 10 358 7 4 36 8 65 8 42 0 54 -4 63 -19z"/>
<path d="M4298 1731 c-58 -9 -95 -35 -122 -87 -19 -35 -21 -57 -21 -204 0
-190 9 -226 63 -268 33 -25 44 -27 154 -32 91 -4 121 -9 128 -20 11 -16 14
-189 4 -214 -8 -20 -81 -31 -116 -17 -26 10 -28 14 -28 70 l0 59 -49 4 c-27 1
-75 1 -106 -1 l-58 -3 5 -87 c5 -91 20 -131 60 -169 37 -34 80 -42 228 -42
121 0 141 2 180 23 33 16 51 34 68 67 20 41 22 58 22 216 0 184 -7 219 -52
261 -36 34 -72 43 -169 43 -129 0 -129 0 -129 118 0 63 4 102 12 110 18 18 94
15 112 -4 9 -9 16 -32 16 -55 l0 -39 100 0 100 0 0 63 c0 106 -26 158 -94 194
-33 17 -231 26 -308 14z"/>
<path d="M1597 1714 c-11 -11 -8 -371 3 -439 11 -68 32 -101 81 -130 28 -16
56 -21 156 -24 l123 -3 2 -192 3 -191 90 0 90 0 3 493 2 492 -95 0 -95 0 0
-200 c0 -182 -2 -200 -18 -209 -26 -14 -129 -12 -141 3 -6 7 -12 91 -13 207
l-3 194 -90 3 c-50 1 -94 0 -98 -4z"/>
<path d="M2552 1228 l3 -493 105 0 105 0 3 470 c1 259 0 480 -3 493 -5 21 -10
22 -110 22 l-105 0 2 -492z"/>
</g>
</svg>
